<svg version="1.1" id="Layer_1" xmlns="http://www.w3.org/2000/svg" xmlns:xlink="http://www.w3.org/1999/xlink" x="0px" y="0px"
	 width="100%" viewBox="0 0 1024 1024" enable-background="new 0 0 1024 1024" xml:space="preserve">
<path fill="#02061C" opacity="1.000000" stroke="none" 
	d="
M466.000000,1025.000000 
	C310.666656,1025.000000 155.833328,1025.000000 1.000000,1025.000000 
	C1.000000,683.666687 1.000000,342.333344 1.000000,1.000000 
	C342.333344,1.000000 683.666687,1.000000 1025.000000,1.000000 
	C1025.000000,342.333344 1025.000000,683.666687 1025.000000,1025.000000 
	C838.833313,1025.000000 652.666687,1025.000000 466.000000,1025.000000 
M721.078918,684.006165 
	C721.078918,684.006165 721.155884,683.995667 721.410095,683.305786 
	C720.971008,682.511597 720.531860,681.717346 720.053955,680.973938 
	C720.053955,680.973938 720.115051,680.992859 720.349548,680.252808 
	C719.598267,678.473083 718.846985,676.693420 718.141296,675.019409 
	C718.141296,675.019409 718.246948,674.973572 718.299255,674.165100 
	C715.144775,664.886108 712.055481,655.584229 708.805359,646.338867 
	C707.400024,642.341125 705.662720,638.460022 704.198059,633.710815 
	C703.833740,633.002563 703.469360,632.294250 703.189331,631.301208 
	C703.189331,631.301208 703.081238,631.024658 703.131042,630.364929 
	C702.790039,629.829956 702.449097,629.294983 701.974365,628.905151 
	C701.974365,628.905151 702.119324,629.039062 702.201599,628.319275 
	C701.847107,627.471191 701.492615,626.623169 700.997314,625.905518 
	C700.997314,625.905518 701.127563,626.046509 701.175232,625.325134 
	C700.829712,624.476807 700.484253,623.628479 700.064270,622.953247 
	C700.064270,622.953247 700.237488,623.027466 700.172668,622.255127 
	C699.475647,620.155457 698.778625,618.055725 698.076050,615.401794 
	C697.861816,614.902283 697.647583,614.402832 697.255859,613.144714 
	C694.536438,605.413513 691.816956,597.682312 689.074646,589.411011 
	C688.860107,588.926270 688.645569,588.441528 688.254700,587.191711 
	C683.501038,573.278015 678.808533,559.343018 673.961548,545.461914 
	C672.196960,540.408203 670.064514,535.482849 668.269592,529.672546 
	C667.883362,528.948853 667.497192,528.225159 667.232971,527.275146 
	C667.232971,527.275146 667.135315,527.037354 667.182983,526.337219 
	C666.829285,525.758850 666.475525,525.180420 666.189087,524.304626 
	C666.189087,524.304626 666.080811,524.019592 666.131592,523.328491 
	C665.795227,522.750854 665.458923,522.173218 665.192017,521.301086 
	C665.192017,521.301086 665.081238,521.019531 665.129822,520.365601 
	C664.800171,519.825684 664.470581,519.285767 664.012817,518.925171 
	C664.012817,518.925171 664.192322,519.053040 664.197449,518.306580 
	C663.832214,517.435913 663.466980,516.565308 663.127197,515.340332 
	C663.127197,515.340332 663.011719,515.004456 663.042725,514.237061 
	C661.763245,510.743103 660.483765,507.249115 659.177979,503.892029 
	C659.177979,503.892029 659.315002,503.917725 659.197571,503.240112 
	C658.842957,502.679901 658.488342,502.119690 658.230957,501.290741 
	C658.230957,501.290741 658.113525,501.030273 658.164062,500.332916 
	C657.816711,499.753326 657.469360,499.173706 657.201538,498.299835 
	C657.201538,498.299835 657.081238,498.019775 657.135681,497.335358 
	C656.795654,496.768433 656.455688,496.201508 656.177917,495.314270 
	C656.177917,495.314270 656.055542,495.011780 656.109436,494.339783 
	C655.775757,493.783173 655.442078,493.226562 655.154480,492.328094 
	C655.154480,492.328094 655.033691,492.004974 655.092834,491.359894 
	C654.770874,490.827850 654.448853,490.295837 654.012756,489.948181 
	C654.012756,489.948181 654.197266,490.062134 654.171021,489.334381 
	C653.828674,488.485168 653.486328,487.635956 653.118591,486.848328 
	C653.118591,486.848328 653.185730,486.847351 653.144409,486.065277 
	C646.556580,466.793243 640.024841,447.501770 633.348999,428.260223 
	C631.156189,421.939880 628.589966,415.749115 626.509033,408.725189 
	C626.050293,407.747040 625.591553,406.768860 625.107483,405.851898 
	C625.107483,405.851898 625.174072,405.849030 625.137024,405.065674 
	C616.611267,380.001190 608.085449,354.936676 599.340942,329.106262 
	C589.508606,300.344055 579.654724,271.589172 569.871948,242.810135 
	C568.683105,239.312668 567.066162,237.685440 562.830017,237.715210 
	C529.519104,237.949265 496.205566,237.898300 462.893768,237.737518 
	C458.979675,237.718643 457.062042,238.697189 455.740417,242.629105 
	C446.956482,268.761993 437.863007,294.790710 428.912964,320.868011 
	C426.515289,327.853973 424.266266,334.890991 421.549622,342.461609 
	C421.068787,343.978912 420.587982,345.496216 419.812469,347.676270 
	C413.372772,366.425171 406.933075,385.174072 400.155518,404.358459 
	C400.073395,404.898529 399.991272,405.438629 399.580841,406.427429 
	C399.527679,406.604950 399.474518,406.782501 399.077850,407.545776 
	C395.753326,417.369568 392.428833,427.193329 388.826050,437.617981 
	C388.624115,438.241943 388.422150,438.865936 388.220703,439.552032 
	C388.220703,439.552032 388.282104,439.542480 387.915558,440.147919 
	C380.112366,462.738770 372.309204,485.329590 364.137573,508.500519 
	C357.884399,526.638000 351.631195,544.775452 345.070251,563.519775 
	C342.061035,572.351501 339.051849,581.183228 335.683899,590.632812 
	C332.251221,600.497437 328.792023,610.352905 325.391144,620.228516 
	C317.269379,643.812561 309.175110,667.406128 300.799866,691.685669 
	C293.122437,713.924438 285.445007,736.163269 277.572388,758.967407 
	C308.594299,758.967407 338.573090,758.997864 368.550995,758.851135 
	C369.699799,758.845520 371.495789,757.350159 371.884857,756.181030 
	C376.666504,741.814331 381.241730,727.378906 386.133667,712.276489 
	C387.062378,708.858459 387.991119,705.440369 389.008972,701.590820 
	C389.008972,701.590820 389.043182,701.151428 389.649475,700.776184 
	C398.972046,672.645508 408.386047,644.544434 417.516144,616.351440 
	C418.847412,612.240540 420.481689,609.714294 426.004333,610.418213 
	C476.502106,610.433594 526.999878,610.466003 577.497620,610.448486 
	C586.658875,610.445312 595.820068,610.237488 605.508728,610.612366 
	C606.015869,611.380493 606.727234,612.082642 607.000061,612.926514 
	C612.947754,631.324463 618.846741,649.738159 624.840149,668.647461 
	C625.012939,669.118591 625.185730,669.589661 625.555054,670.808411 
	C626.314392,672.904175 627.073669,674.999878 627.865784,677.733582 
	C628.190430,678.503113 628.515015,679.272583 628.923462,680.789368 
	C629.596741,682.383118 630.269958,683.976868 630.725586,685.689819 
	C630.725586,685.689819 630.826111,685.916626 630.891479,686.462036 
	C630.957031,686.633057 631.022583,686.804077 631.158875,687.720093 
	C638.515808,709.615234 645.970337,731.478455 653.141541,753.434204 
	C654.462341,757.478149 656.109436,759.164429 660.693787,759.121887 
	C687.972168,758.868469 715.254028,758.997620 742.534729,758.980164 
	C743.979309,758.979187 745.423767,758.813416 747.361511,758.693970 
	C746.844604,756.901428 746.502808,755.487183 746.031677,754.117371 
	C739.491760,735.102295 732.957764,716.085083 726.352844,697.092468 
	C725.451660,694.501221 724.174683,692.040588 723.201721,688.657349 
	C722.819336,687.917419 722.436890,687.177429 722.073914,686.537964 
	C722.073914,686.537964 722.174316,686.518188 722.276917,685.736328 
	C721.874146,685.133972 721.471436,684.531616 721.078918,684.006165 
z"/>
<path fill="#0A90AA" opacity="1.000000" stroke="none" 
	d="
M666.080811,524.019592 
	C666.080811,524.019592 666.189087,524.304626 666.233154,524.776794 
	C666.563232,525.845093 666.849243,526.441223 667.135315,527.037354 
	C667.135315,527.037354 667.232971,527.275146 667.275879,527.770508 
	C667.579102,529.010254 667.839478,529.754639 668.099854,530.498962 
	C670.064514,535.482849 672.196960,540.408203 673.961548,545.461914 
	C678.808533,559.343018 683.501038,573.278015 688.034180,587.377625 
	C685.635315,582.841797 683.457092,578.119995 680.975525,572.740723 
	C679.328796,579.115417 675.504150,578.091003 671.156433,576.922668 
	C668.437988,576.192200 665.398499,576.539307 662.508118,576.609497 
	C660.728027,576.652832 658.952454,577.334839 657.183472,577.299561 
	C649.950562,577.155090 642.722046,576.796387 635.489197,576.636108 
	C634.018433,576.603455 632.308472,576.699646 631.101746,577.406982 
	C627.478943,579.530518 624.137268,580.438110 620.867310,576.883850 
	C620.593872,576.586670 619.706360,576.387573 619.482117,576.580994 
	C614.753723,580.659851 608.771790,577.816467 603.517883,579.506531 
	C598.879028,580.998657 593.806824,581.275757 588.893250,581.751831 
	C580.696533,582.545959 572.480591,583.209900 564.257263,583.615295 
	C562.079712,583.722656 559.452332,583.252686 557.719421,582.053650 
	C554.131775,579.571228 550.752136,579.883484 546.844788,580.886902 
	C542.945251,581.888306 538.852722,582.216492 534.821594,582.591125 
	C533.035645,582.757080 531.190552,582.146484 529.376282,582.172119 
	C522.998230,582.262207 516.500671,583.319763 510.276062,582.425659 
	C502.704895,581.338135 495.917694,585.113220 488.047638,583.877686 
	C480.715485,582.726501 472.695648,586.303101 464.925049,587.429626 
	C461.708435,587.895935 458.351349,587.320801 455.060425,587.370911 
	C452.497498,587.409912 449.937225,587.670776 447.377533,587.857361 
	C445.610077,587.986206 443.844757,588.288696 442.080048,588.276917 
	C439.452301,588.259460 436.727814,588.426514 434.222473,587.801514 
	C430.639069,586.907654 427.257599,584.500244 423.714417,584.332458 
	C419.543823,584.134949 415.309509,585.755859 411.071960,586.377869 
	C405.860046,587.143005 400.482025,588.696594 395.427612,588.022095 
	C391.195923,587.457336 387.664276,587.598267 383.935181,589.327576 
	C382.467834,590.008057 380.820862,590.540771 379.220825,590.655762 
	C370.208893,591.303894 361.184998,591.785217 352.169586,592.388794 
	C351.397919,592.440491 350.366211,592.752563 349.949860,593.311829 
	C346.638062,597.760498 341.869781,596.960510 338.094574,597.275330 
	C337.317322,594.525085 336.679993,592.270020 336.042664,590.014954 
	C339.051849,581.183228 342.061035,572.351501 345.550232,563.035522 
	C346.965698,561.034973 348.197144,559.624756 348.785614,557.983887 
	C351.366333,550.788269 353.728546,543.514587 356.237183,536.292542 
	C357.439972,532.829834 358.792023,529.418945 359.658081,527.103271 
	C362.853638,528.785339 365.409576,531.306396 367.553955,530.994873 
	C371.127228,530.475708 374.312347,527.709778 377.888428,526.679871 
	C382.540894,525.339966 387.387634,524.248291 392.201202,523.989990 
	C400.192841,523.560974 408.225037,523.916992 416.239258,523.844482 
	C417.358978,523.834412 418.466827,523.240784 419.591858,522.965149 
	C428.603424,520.757141 437.670166,519.266541 446.834747,521.266724 
	C446.422241,524.059387 446.145203,526.515381 446.017548,529.247070 
	C446.759613,529.647217 447.352264,529.771729 448.314392,530.091064 
	C450.151917,530.520813 451.619812,530.959900 453.088135,530.961243 
	C492.913116,530.996582 532.738159,531.010864 572.562927,530.908630 
	C574.370544,530.903931 576.175232,529.779053 578.253601,529.047852 
	C578.755920,528.599792 578.985962,528.279846 579.414368,527.960938 
	C579.612671,527.962036 580.008362,527.990417 580.025024,528.009399 
	C580.041748,528.028381 579.990051,528.008301 579.875000,527.742920 
	C579.425537,527.008850 579.091187,526.540222 578.539429,525.875427 
	C578.223145,525.114014 578.124329,524.548706 578.166260,523.686096 
	C577.508301,519.590454 576.709595,515.792114 576.273254,511.945343 
	C581.793091,508.286377 587.249695,506.871124 593.304382,509.552551 
	C593.714600,509.734222 594.503296,509.768555 594.746765,509.515778 
	C600.104797,503.954895 606.936523,512.639160 612.397156,507.730011 
	C612.575256,507.569946 613.862976,508.348236 614.385071,508.917114 
	C616.969360,511.732635 618.608154,510.799225 620.691284,508.063538 
	C621.829529,506.568756 624.437927,505.038391 626.098389,505.304169 
	C632.053772,506.257294 638.053101,507.507996 643.715759,509.538696 
	C648.385559,511.213379 651.208130,508.634644 654.403137,506.562897 
	C655.746155,505.692017 656.713623,504.242096 658.083496,503.218689 
	C658.648438,503.560547 658.981750,503.739136 659.315002,503.917725 
	C659.315002,503.917725 659.177979,503.892029 659.153076,504.246735 
	C660.422668,508.069122 661.717224,511.536774 663.011719,515.004456 
	C663.011719,515.004456 663.127197,515.340332 663.146118,515.875305 
	C663.507507,517.291199 663.849915,518.172119 664.192322,519.053040 
	C664.192322,519.053040 664.012817,518.925171 664.146973,519.139954 
	C664.547791,519.909668 664.814514,520.464600 665.081238,521.019531 
	C665.081238,521.019531 665.192017,521.301086 665.229980,521.768799 
	C665.538879,522.830872 665.809875,523.425232 666.080811,524.019592 
z"/>
<path fill="#0988A5" opacity="1.000000" stroke="none" 
	d="
M335.863281,590.323853 
	C336.679993,592.270020 337.317322,594.525085 338.094574,597.275330 
	C341.869781,596.960510 346.638062,597.760498 349.949860,593.311829 
	C350.366211,592.752563 351.397919,592.440491 352.169586,592.388794 
	C361.184998,591.785217 370.208893,591.303894 379.220825,590.655762 
	C380.820862,590.540771 382.467834,590.008057 383.935181,589.327576 
	C387.664276,587.598267 391.195923,587.457336 395.427612,588.022095 
	C400.482025,588.696594 405.860046,587.143005 411.071960,586.377869 
	C415.309509,585.755859 419.543823,584.134949 423.714417,584.332458 
	C427.257599,584.500244 430.639069,586.907654 434.222473,587.801514 
	C436.727814,588.426514 439.452301,588.259460 442.080048,588.276917 
	C443.844757,588.288696 445.610077,587.986206 447.377533,587.857361 
	C449.937225,587.670776 452.497498,587.409912 455.060425,587.370911 
	C458.351349,587.320801 461.708435,587.895935 464.925049,587.429626 
	C472.695648,586.303101 480.715485,582.726501 488.047638,583.877686 
	C495.917694,585.113220 502.704895,581.338135 510.276062,582.425659 
	C516.500671,583.319763 522.998230,582.262207 529.376282,582.172119 
	C531.190552,582.146484 533.035645,582.757080 534.821594,582.591125 
	C538.852722,582.216492 542.945251,581.888306 546.844788,580.886902 
	C550.752136,579.883484 554.131775,579.571228 557.719421,582.053650 
	C559.452332,583.252686 562.079712,583.722656 564.257263,583.615295 
	C572.480591,583.209900 580.696533,582.545959 588.893250,581.751831 
	C593.806824,581.275757 598.879028,580.998657 603.517883,579.506531 
	C608.771790,577.816467 614.753723,580.659851 619.482117,576.580994 
	C619.706360,576.387573 620.593872,576.586670 620.867310,576.883850 
	C624.137268,580.438110 627.478943,579.530518 631.101746,577.406982 
	C632.308472,576.699646 634.018433,576.603455 635.489197,576.636108 
	C642.722046,576.796387 649.950562,577.155090 657.183472,577.299561 
	C658.952454,577.334839 660.728027,576.652832 662.508118,576.609497 
	C665.398499,576.539307 668.437988,576.192200 671.156433,576.922668 
	C675.504150,578.091003 679.328796,579.115417 680.975525,572.740723 
	C683.457092,578.119995 685.635315,582.841797 688.122314,587.760132 
	C688.645569,588.441528 688.860107,588.926270 688.955444,589.984741 
	C690.224182,596.038818 691.612061,601.519226 692.679932,607.120422 
	C690.882935,606.888367 689.387634,606.596436 687.935120,606.161743 
	C686.905884,605.853577 685.586304,604.712341 684.990784,605.036194 
	C678.885864,608.355774 672.333923,599.919189 666.389221,605.792236 
	C666.184265,605.994751 665.437500,605.553528 664.954956,605.585999 
	C662.080811,605.779724 658.640564,605.103027 656.460754,606.450378 
	C652.339539,608.997681 649.534729,607.219360 645.928162,605.652161 
	C641.052246,603.533325 635.872986,601.167419 630.732361,605.960510 
	C629.477173,607.130798 626.779785,606.994934 624.739319,607.023560 
	C621.961365,607.062561 619.166565,606.453918 616.401123,606.585876 
	C615.151184,606.645508 613.861267,608.525085 612.748718,608.377625 
	C604.882263,607.335266 597.371033,605.019165 589.062012,605.734009 
	C576.980225,606.773499 564.738770,605.811462 552.576782,606.132812 
	C547.340149,606.271240 542.132019,607.486877 536.512573,608.286072 
	C527.058899,608.534363 518.003601,608.709717 508.823090,608.664307 
	C507.816315,608.589661 506.934692,608.735718 505.581451,608.901489 
	C480.661713,608.943726 456.213409,608.933594 431.765686,609.043701 
	C429.539581,609.053711 427.316925,609.835327 425.092682,610.258667 
	C420.481689,609.714294 418.847412,612.240540 417.516144,616.351440 
	C408.386047,644.544434 398.972046,672.645508 389.349823,700.554565 
	C390.307831,695.871460 391.646057,691.430237 392.778381,686.937195 
	C393.160187,685.422241 393.019653,683.775635 393.117859,682.189209 
	C391.397125,682.294861 389.588623,682.106445 387.979584,682.586548 
	C386.276642,683.094666 384.652344,684.083557 383.186523,685.132080 
	C376.662689,689.798645 368.204132,686.280457 361.424225,690.308472 
	C360.405487,690.913757 357.673401,688.052063 356.100220,688.408936 
	C349.469238,689.913208 342.613525,685.590332 336.074890,689.451782 
	C334.945190,690.118958 332.900085,689.235352 331.277679,689.069031 
	C327.877106,688.720276 324.306458,687.545044 321.112366,688.201599 
	C315.058319,689.446045 310.337738,688.699646 307.163452,682.958801 
	C307.088257,682.822754 306.552063,682.941650 306.460419,682.941650 
	C304.618103,685.694275 302.843933,688.345093 301.069763,690.995850 
	C309.175110,667.406128 317.269379,643.812561 325.391144,620.228516 
	C328.792023,610.352905 332.251221,600.497437 335.863281,590.323853 
M365.342651,631.981812 
	C363.186218,631.874023 361.029083,631.661865 358.873505,631.677063 
	C350.960297,631.732910 343.047821,631.903320 335.134644,631.949280 
	C331.639038,631.969543 328.142273,631.795166 323.323730,631.676636 
	C321.389496,637.170654 318.781158,644.300232 316.371918,651.496521 
	C313.653717,659.615784 316.034943,662.808960 324.559784,662.538757 
	C328.320953,662.419556 332.141327,661.404053 335.811554,661.837952 
	C341.140442,662.468079 346.357727,664.042114 351.975494,665.292114 
	C352.137909,664.045044 352.307129,662.745850 352.484924,661.380615 
	C353.349182,661.473938 353.856720,661.450317 354.314240,661.590149 
	C359.208038,663.086060 364.074585,664.677917 369.004730,666.040161 
	C369.678223,666.226379 370.716736,665.389648 371.481384,664.871704 
	C372.411255,664.242004 373.587463,662.644958 374.042358,662.847473 
	C379.710785,665.370361 385.584351,659.744629 391.323120,663.401489 
	C392.243408,663.987915 395.056091,662.711121 396.173859,661.523682 
	C397.034546,660.609375 396.608032,658.483459 396.799561,656.399353 
	C402.632721,659.142761 403.519501,655.295166 404.668152,651.388123 
	C406.543915,645.007690 408.715271,638.714783 410.676208,632.358521 
	C411.386902,630.054810 411.851349,627.675110 412.569885,624.753723 
	C410.881470,625.043823 409.933899,625.123352 409.034363,625.374756 
	C403.409363,626.947144 397.930359,629.114380 391.852600,626.941040 
	C389.817841,626.213501 387.214142,626.325684 385.055817,626.836609 
	C378.736237,628.332703 372.509888,630.222656 365.342651,631.981812 
M395.167908,678.521118 
	C394.925110,677.939636 394.682343,677.358154 394.439545,676.776611 
	C394.116638,677.068787 393.793732,677.360901 393.470856,677.653076 
	C393.922424,678.049194 394.373962,678.445251 395.167908,678.521118 
z"/>
<path fill="#12B0C0" opacity="1.000000" stroke="none" 
	d="
M575.910889,511.993744 
	C576.709595,515.792114 577.508301,519.590454 578.004883,523.357910 
	C556.141113,458.906403 534.579468,394.485779 513.017761,330.065125 
	C512.624878,330.072876 512.231995,330.080597 511.839142,330.088318 
	C506.714081,345.447327 501.589020,360.806335 496.386597,375.750244 
	C496.792542,372.591797 497.087189,369.798401 497.799347,367.115845 
	C499.176453,361.928558 497.800598,359.960480 492.403961,360.073151 
	C490.938080,360.103729 489.457092,360.453735 488.023438,360.816803 
	C477.161041,363.567383 466.471985,367.211945 454.975067,366.332489 
	C451.716156,366.083191 448.240051,365.921234 445.147980,366.763458 
	C436.127289,369.220551 427.250305,372.205292 418.101624,375.050171 
	C417.149628,373.506622 416.049438,371.722717 414.962158,369.533264 
	C416.563385,363.632355 418.245056,358.161316 419.686218,352.627655 
	C420.151520,350.840942 419.984741,348.889557 420.107178,347.013519 
	C420.587982,345.496216 421.068787,343.978912 422.002289,342.201782 
	C423.160492,340.899658 424.123596,339.948425 424.529663,338.800232 
	C427.138123,331.424469 429.592072,323.994263 432.166595,316.606232 
	C433.232635,313.546906 434.470978,310.547638 435.749664,307.211365 
	C437.037262,307.965149 437.748810,308.157562 438.098785,308.622314 
	C440.718201,312.100983 443.456848,312.732117 446.870850,309.541168 
	C447.661438,308.802216 449.370758,308.561920 450.524078,308.784058 
	C454.341675,309.519287 458.064148,310.793823 461.896729,311.381073 
	C463.257782,311.589630 465.337280,310.845917 466.208832,309.802124 
	C468.680725,306.841797 471.457916,306.905792 474.769287,307.722992 
	C478.134033,308.553314 482.331848,310.508942 484.881439,309.289154 
	C492.234741,305.771179 499.827332,307.919373 507.148010,307.354279 
	C521.505676,306.246033 536.018616,304.941223 550.476013,306.910797 
	C551.119324,306.998474 551.978210,307.068207 552.432251,306.733398 
	C556.173096,303.975159 560.358032,304.010895 564.742981,304.235931 
	C568.973877,304.453064 573.307983,304.524139 577.468140,303.857025 
	C585.670227,302.541687 589.221680,304.386292 591.887207,312.283844 
	C592.685913,314.650269 593.292542,317.102112 594.312195,319.368591 
	C595.916687,322.934875 597.796448,326.377319 599.559692,329.872192 
	C608.085449,354.936676 616.611267,380.001190 624.897583,405.223389 
	C623.833496,403.761597 622.828796,402.207306 622.214600,400.511597 
	C619.207947,392.210876 616.385193,383.843079 613.335083,375.558807 
	C611.592896,370.827057 607.838074,367.845612 602.951172,368.593506 
	C592.480042,370.196075 582.159485,372.757629 571.720642,374.606750 
	C567.606140,375.335571 563.333740,375.135864 559.146912,375.511566 
	C557.414612,375.666992 555.277710,375.697113 554.087646,376.694427 
	C550.443970,379.748199 547.192871,378.702087 543.469971,376.946869 
	C540.846008,375.709778 537.852844,374.957794 534.957214,374.672638 
	C531.564636,374.338562 530.099731,375.948730 531.363525,379.618500 
	C534.455322,388.596161 537.348511,397.642395 540.307251,406.665771 
	C545.598206,422.801819 550.878662,438.941284 556.333740,455.376099 
	C557.161255,457.364227 557.880798,459.034332 558.466370,460.750183 
	C564.293884,477.827057 570.099243,494.911469 575.910889,511.993744 
z"/>
<path fill="#15BDC9" opacity="1.000000" stroke="none" 
	d="
M599.450317,329.489227 
	C597.796448,326.377319 595.916687,322.934875 594.312195,319.368591 
	C593.292542,317.102112 592.685913,314.650269 591.887207,312.283844 
	C589.221680,304.386292 585.670227,302.541687 577.468140,303.857025 
	C573.307983,304.524139 568.973877,304.453064 564.742981,304.235931 
	C560.358032,304.010895 556.173096,303.975159 552.432251,306.733398 
	C551.978210,307.068207 551.119324,306.998474 550.476013,306.910797 
	C536.018616,304.941223 521.505676,306.246033 507.148010,307.354279 
	C499.827332,307.919373 492.234741,305.771179 484.881439,309.289154 
	C482.331848,310.508942 478.134033,308.553314 474.769287,307.722992 
	C471.457916,306.905792 468.680725,306.841797 466.208832,309.802124 
	C465.337280,310.845917 463.257782,311.589630 461.896729,311.381073 
	C458.064148,310.793823 454.341675,309.519287 450.524078,308.784058 
	C449.370758,308.561920 447.661438,308.802216 446.870850,309.541168 
	C443.456848,312.732117 440.718201,312.100983 438.098785,308.622314 
	C437.748810,308.157562 437.037262,307.965149 435.749664,307.211365 
	C434.470978,310.547638 433.232635,313.546906 432.166595,316.606232 
	C429.592072,323.994263 427.138123,331.424469 424.529663,338.800232 
	C424.123596,339.948425 423.160492,340.899658 422.201965,341.923279 
	C424.266266,334.890991 426.515289,327.853973 428.912964,320.868011 
	C437.863007,294.790710 446.956482,268.761993 455.740417,242.629105 
	C457.062042,238.697189 458.979675,237.718643 462.893768,237.737518 
	C496.205566,237.898300 529.519104,237.949265 562.830017,237.715210 
	C567.066162,237.685440 568.683105,239.312668 569.871948,242.810135 
	C579.654724,271.589172 589.508606,300.344055 599.450317,329.489227 
M436.511841,304.526703 
	C436.511841,304.526703 436.502533,304.489502 436.511841,304.526703 
z"/>
<path fill="#0FA3B7" opacity="1.000000" stroke="none" 
	d="
M414.949219,369.938812 
	C416.049438,371.722717 417.149628,373.506622 418.101624,375.050171 
	C427.250305,372.205292 436.127289,369.220551 445.147980,366.763458 
	C448.240051,365.921234 451.716156,366.083191 454.975067,366.332489 
	C466.471985,367.211945 477.161041,363.567383 488.023438,360.816803 
	C489.457092,360.453735 490.938080,360.103729 492.403961,360.073151 
	C497.800598,359.960480 499.176453,361.928558 497.799347,367.115845 
	C497.087189,369.798401 496.792542,372.591797 496.369934,375.727936 
	C496.430634,376.120758 496.438568,376.175110 496.117920,376.348083 
	C493.261780,384.429260 490.726349,392.337433 488.157166,400.152832 
	C488.123474,400.060089 488.309113,399.993042 488.180420,400.179688 
	C488.014343,400.906860 487.976990,401.447418 487.918945,402.364624 
	C485.929230,408.724365 483.991791,414.718018 481.985413,420.688477 
	C475.071320,441.263123 468.133179,461.829681 461.175720,481.965088 
	C461.783478,477.703857 462.419647,473.876831 463.032349,470.190918 
	C456.899933,471.111755 451.087311,472.846924 445.351227,472.622864 
	C438.519226,472.355957 432.267456,472.880402 426.106018,476.048798 
	C423.794647,477.237396 420.742554,477.174896 418.009430,477.313690 
	C412.627075,477.586914 407.231110,477.585541 401.842194,477.745972 
	C401.204681,477.764954 400.523743,477.984985 399.951416,478.282196 
	C392.286652,482.262848 384.132050,481.731415 376.001404,480.560608 
	C379.789398,469.047852 383.590149,457.934753 387.196014,446.758789 
	C387.933075,444.474365 387.939087,441.954071 388.282104,439.542480 
	C388.282104,439.542480 388.220703,439.552032 388.458008,439.405487 
	C388.831665,438.511658 388.967987,437.764374 389.104309,437.017090 
	C392.428833,427.193329 395.753326,417.369568 399.313965,407.127808 
	C399.699402,406.481903 399.819061,406.238220 399.909149,405.978699 
	C399.991272,405.438629 400.073395,404.898529 400.593597,403.899536 
	C403.454773,397.536591 405.859314,391.624908 408.306458,385.730896 
	C410.496277,380.456726 412.733124,375.202057 414.949219,369.938812 
z"/>
<path fill="#08769A" opacity="1.000000" stroke="none" 
	d="
M628.839661,680.042114 
	C628.515015,679.272583 628.190430,678.503113 628.015259,677.120850 
	C627.229431,674.358948 626.294006,672.209900 625.358582,670.060791 
	C625.185730,669.589661 625.012939,669.118591 625.055786,668.209656 
	C633.527283,667.684937 641.782959,667.549438 650.039001,667.527771 
	C655.828552,667.512634 661.952820,668.845337 667.302429,667.345764 
	C671.577698,666.147400 675.638855,665.329407 679.037109,667.249084 
	C684.971985,670.601624 689.686157,667.013794 693.926819,664.885254 
	C698.591064,662.544250 702.666260,664.293457 706.957031,663.866394 
	C713.140869,663.250916 714.391296,667.433899 715.964539,671.752869 
	C716.398926,672.945374 717.468689,673.906372 718.246948,674.973572 
	C718.246948,674.973572 718.141296,675.019409 718.145630,675.331299 
	C718.805054,677.426392 719.460022,679.209595 720.115051,680.992859 
	C720.115051,680.992859 720.053955,680.973938 720.116760,681.276489 
	C720.505005,682.384583 720.830444,683.190125 721.155884,683.995667 
	C721.155884,683.995667 721.078918,684.006165 721.198547,684.296509 
	C721.603577,685.230591 721.888916,685.874390 722.174316,686.518188 
	C722.174316,686.518188 722.073914,686.537964 722.174561,686.878418 
	C722.540710,687.985779 722.806152,688.752625 723.071655,689.519470 
	C724.174683,692.040588 725.451660,694.501221 726.352844,697.092468 
	C732.957764,716.085083 739.491760,735.102295 746.031677,754.117371 
	C746.502808,755.487183 746.844604,756.901428 747.361511,758.693970 
	C745.423767,758.813416 743.979309,758.979187 742.534729,758.980164 
	C715.254028,758.997620 687.972168,758.868469 660.693787,759.121887 
	C656.109436,759.164429 654.462341,757.478149 653.141541,753.434204 
	C645.970337,731.478455 638.515808,709.615234 631.130981,687.208496 
	C631.081482,686.413940 630.989136,686.153870 630.826111,685.916626 
	C630.826111,685.916626 630.725586,685.689819 630.812500,685.240112 
	C630.212769,683.207642 629.526184,681.624878 628.839661,680.042114 
z"/>
<path fill="#0FA3B7" opacity="1.000000" stroke="none" 
	d="
M556.163513,455.079346 
	C550.878662,438.941284 545.598206,422.801819 540.307251,406.665771 
	C537.348511,397.642395 534.455322,388.596161 531.363525,379.618500 
	C530.099731,375.948730 531.564636,374.338562 534.957214,374.672638 
	C537.852844,374.957794 540.846008,375.709778 543.469971,376.946869 
	C547.192871,378.702087 550.443970,379.748199 554.087646,376.694427 
	C555.277710,375.697113 557.414612,375.666992 559.146912,375.511566 
	C563.333740,375.135864 567.606140,375.335571 571.720642,374.606750 
	C582.159485,372.757629 592.480042,370.196075 602.951172,368.593506 
	C607.838074,367.845612 611.592896,370.827057 613.335083,375.558807 
	C616.385193,383.843079 619.207947,392.210876 622.214600,400.511597 
	C622.828796,402.207306 623.833496,403.761597 624.916138,405.615051 
	C625.174072,405.849030 625.107483,405.851898 625.154541,406.210022 
	C625.532471,407.545105 625.863464,408.522095 626.194458,409.499084 
	C628.589966,415.749115 631.156189,421.939880 633.348999,428.260223 
	C640.024841,447.501770 646.556580,466.793243 652.907715,486.222809 
	C651.578857,484.162933 650.251770,482.028290 649.436340,479.713379 
	C646.397339,471.086212 643.545654,462.393280 640.579712,453.740082 
	C639.742554,451.297791 638.715149,448.599396 635.364075,450.198578 
	C630.507202,452.516357 625.708069,454.639069 620.113403,453.718689 
	C619.397644,453.600952 618.278564,453.978668 617.825134,454.524597 
	C613.176575,460.121704 606.615662,457.551758 602.227966,456.112183 
	C595.110840,453.777130 588.437805,455.470734 581.701965,455.516571 
	C573.174194,455.574646 564.644958,459.334534 556.163513,455.079346 
z"/>
<path fill="#08769A" opacity="1.000000" stroke="none" 
	d="
M300.934814,691.340759 
	C302.843933,688.345093 304.618103,685.694275 306.460419,682.941650 
	C306.552063,682.941650 307.088257,682.822754 307.163452,682.958801 
	C310.337738,688.699646 315.058319,689.446045 321.112366,688.201599 
	C324.306458,687.545044 327.877106,688.720276 331.277679,689.069031 
	C332.900085,689.235352 334.945190,690.118958 336.074890,689.451782 
	C342.613525,685.590332 349.469238,689.913208 356.100220,688.408936 
	C357.673401,688.052063 360.405487,690.913757 361.424225,690.308472 
	C368.204132,686.280457 376.662689,689.798645 383.186523,685.132080 
	C384.652344,684.083557 386.276642,683.094666 387.979584,682.586548 
	C389.588623,682.106445 391.397125,682.294861 393.117859,682.189209 
	C393.019653,683.775635 393.160187,685.422241 392.778381,686.937195 
	C391.646057,691.430237 390.307831,695.871460 389.046692,700.742188 
	C389.043182,701.151428 389.008972,701.590820 388.706238,702.038574 
	C387.559082,705.977905 386.714661,709.469543 385.870300,712.961182 
	C381.241730,727.378906 376.666504,741.814331 371.884857,756.181030 
	C371.495789,757.350159 369.699799,758.845520 368.550995,758.851135 
	C338.573090,758.997864 308.594299,758.967407 277.572388,758.967407 
	C285.445007,736.163269 293.122437,713.924438 300.934814,691.340759 
z"/>
<path fill="#0982A1" opacity="1.000000" stroke="none" 
	d="
M718.273071,674.569336 
	C717.468689,673.906372 716.398926,672.945374 715.964539,671.752869 
	C714.391296,667.433899 713.140869,663.250916 706.957031,663.866394 
	C702.666260,664.293457 698.591064,662.544250 693.926819,664.885254 
	C689.686157,667.013794 684.971985,670.601624 679.037109,667.249084 
	C675.638855,665.329407 671.577698,666.147400 667.302429,667.345764 
	C661.952820,668.845337 655.828552,667.512634 650.039001,667.527771 
	C641.782959,667.549438 633.527283,667.684937 625.013245,667.960327 
	C618.846741,649.738159 612.947754,631.324463 607.000061,612.926514 
	C606.727234,612.082642 606.015869,611.380493 604.883911,610.166687 
	C601.978210,609.473572 599.698120,609.019470 597.416443,609.011414 
	C579.536133,608.948425 561.655334,608.997803 543.775024,608.933838 
	C541.486206,608.925659 539.198914,608.464478 536.910950,608.213135 
	C542.132019,607.486877 547.340149,606.271240 552.576782,606.132812 
	C564.738770,605.811462 576.980225,606.773499 589.062012,605.734009 
	C597.371033,605.019165 604.882263,607.335266 612.748718,608.377625 
	C613.861267,608.525085 615.151184,606.645508 616.401123,606.585876 
	C619.166565,606.453918 621.961365,607.062561 624.739319,607.023560 
	C626.779785,606.994934 629.477173,607.130798 630.732361,605.960510 
	C635.872986,601.167419 641.052246,603.533325 645.928162,605.652161 
	C649.534729,607.219360 652.339539,608.997681 656.460754,606.450378 
	C658.640564,605.103027 662.080811,605.779724 664.954956,605.585999 
	C665.437500,605.553528 666.184265,605.994751 666.389221,605.792236 
	C672.333923,599.919189 678.885864,608.355774 684.990784,605.036194 
	C685.586304,604.712341 686.905884,605.853577 687.935120,606.161743 
	C689.387634,606.596436 690.882935,606.888367 692.868469,607.412109 
	C694.729126,609.689697 696.081238,611.796509 697.433350,613.903320 
	C697.647583,614.402832 697.861816,614.902283 697.918640,615.958862 
	C698.586609,618.686462 699.412048,620.856934 700.237488,623.027466 
	C700.237488,623.027466 700.064270,622.953247 700.118042,623.217957 
	C700.490417,624.337280 700.809021,625.191895 701.127563,626.046509 
	C701.127563,626.046509 700.997314,625.905518 701.086914,626.191772 
	C701.490845,627.331665 701.805054,628.185364 702.119263,629.039062 
	C702.119324,629.039062 701.974365,628.905151 702.116272,629.136658 
	C702.532532,629.920349 702.806885,630.472473 703.081238,631.024658 
	C703.081238,631.024658 703.189331,631.301208 703.249390,631.817261 
	C703.565002,633.064209 703.820618,633.795105 704.076233,634.525940 
	C705.662720,638.460022 707.400024,642.341125 708.805359,646.338867 
	C712.055481,655.584229 715.144775,664.886108 718.273071,674.569336 
z"/>
<path fill="#0C98B0" opacity="1.000000" stroke="none" 
	d="
M556.333740,455.376099 
	C564.644958,459.334534 573.174194,455.574646 581.701965,455.516571 
	C588.437805,455.470734 595.110840,453.777130 602.227966,456.112183 
	C606.615662,457.551758 613.176575,460.121704 617.825134,454.524597 
	C618.278564,453.978668 619.397644,453.600952 620.113403,453.718689 
	C625.708069,454.639069 630.507202,452.516357 635.364075,450.198578 
	C638.715149,448.599396 639.742554,451.297791 640.579712,453.740082 
	C643.545654,462.393280 646.397339,471.086212 649.436340,479.713379 
	C650.251770,482.028290 651.578857,484.162933 652.928345,486.613831 
	C653.185730,486.847351 653.118591,486.848328 653.152222,487.168213 
	C653.522949,488.346069 653.860107,489.204102 654.197266,490.062134 
	C654.197266,490.062134 654.012756,489.948181 654.138428,490.154694 
	C654.520569,490.909119 654.777161,491.457062 655.033691,492.004974 
	C655.033691,492.004974 655.154480,492.328094 655.206787,492.808105 
	C655.524597,493.862701 655.790039,494.437225 656.055542,495.011780 
	C656.055542,495.011780 656.177917,495.314270 656.222534,495.789673 
	C656.538513,496.849945 656.809875,497.434845 657.081238,498.019775 
	C657.081238,498.019775 657.201538,498.299835 657.238892,498.769379 
	C657.555298,499.836029 657.834412,500.433136 658.113525,501.030273 
	C658.113525,501.030273 658.230957,501.290741 658.115601,501.799805 
	C657.950806,502.557678 657.901245,502.806519 657.851746,503.055359 
	C656.713623,504.242096 655.746155,505.692017 654.403137,506.562897 
	C651.208130,508.634644 648.385559,511.213379 643.715759,509.538696 
	C638.053101,507.507996 632.053772,506.257294 626.098389,505.304169 
	C624.437927,505.038391 621.829529,506.568756 620.691284,508.063538 
	C618.608154,510.799225 616.969360,511.732635 614.385071,508.917114 
	C613.862976,508.348236 612.575256,507.569946 612.397156,507.730011 
	C606.936523,512.639160 600.104797,503.954895 594.746765,509.515778 
	C594.503296,509.768555 593.714600,509.734222 593.304382,509.552551 
	C587.249695,506.871124 581.793091,508.286377 576.273254,511.945343 
	C570.099243,494.911469 564.293884,477.827057 558.466370,460.750183 
	C557.880798,459.034332 557.161255,457.364227 556.333740,455.376099 
z"/>
<path fill="#0C98B0" opacity="1.000000" stroke="none" 
	d="
M375.945221,480.938080 
	C384.132050,481.731415 392.286652,482.262848 399.951416,478.282196 
	C400.523743,477.984985 401.204681,477.764954 401.842194,477.745972 
	C407.231110,477.585541 412.627075,477.586914 418.009430,477.313690 
	C420.742554,477.174896 423.794647,477.237396 426.106018,476.048798 
	C432.267456,472.880402 438.519226,472.355957 445.351227,472.622864 
	C451.087311,472.846924 456.899933,471.111755 463.032349,470.190918 
	C462.419647,473.876831 461.783478,477.703857 461.184082,482.128693 
	C461.220886,482.726532 461.036926,482.997528 460.721832,483.207550 
	C459.962372,485.151123 459.518005,486.884705 459.128967,488.716492 
	C459.184296,488.814728 459.046387,488.993134 458.739929,489.185669 
	C458.040405,491.012848 457.647308,492.647522 457.194153,494.179657 
	C457.134094,494.077148 457.339264,493.957367 457.143860,494.257324 
	C456.692932,495.459656 456.437378,496.362000 456.136017,497.152405 
	C456.090210,497.040405 456.314301,496.948975 456.119873,497.251648 
	C455.687958,498.465424 455.450470,499.376526 455.148560,500.180115 
	C455.084106,500.072601 455.299286,499.943878 455.115234,500.250000 
	C454.693848,501.464661 454.456512,502.373230 454.165558,503.170715 
	C454.111938,503.059692 454.334137,502.952759 454.144012,503.257385 
	C453.711639,504.472656 453.469360,505.383331 453.238770,506.200500 
	C453.250488,506.106964 453.437469,506.130981 453.115601,506.335449 
	C452.275055,508.445648 451.756378,510.351410 451.268799,512.186707 
	C451.299896,512.116272 451.440521,512.179016 451.354767,512.266113 
	C451.107758,512.541138 451.039795,512.760925 451.060944,513.290771 
	C450.873993,514.086243 450.691284,514.603577 450.421722,515.215088 
	C450.172974,515.513611 450.092163,515.748108 450.091675,516.292847 
	C449.894714,517.088074 449.698456,517.603516 449.416321,518.214355 
	C449.170441,518.515808 449.090149,518.751282 449.087585,519.304260 
	C448.846252,520.104675 448.606995,520.617065 448.018250,521.080139 
	C447.435913,520.997192 447.203064,520.963623 446.970215,520.930054 
	C437.670166,519.266541 428.603424,520.757141 419.591858,522.965149 
	C418.466827,523.240784 417.358978,523.834412 416.239258,523.844482 
	C408.225037,523.916992 400.192841,523.560974 392.201202,523.989990 
	C387.387634,524.248291 382.540894,525.339966 377.888428,526.679871 
	C374.312347,527.709778 371.127228,530.475708 367.553955,530.994873 
	C365.409576,531.306396 362.853638,528.785339 359.658081,527.103271 
	C358.792023,529.418945 357.439972,532.829834 356.237183,536.292542 
	C353.728546,543.514587 351.366333,550.788269 348.785614,557.983887 
	C348.197144,559.624756 346.965698,561.034973 345.704102,562.732117 
	C351.631195,544.775452 357.884399,526.638000 364.631531,508.017181 
	C366.970978,503.205017 368.760101,498.850922 370.681458,494.556061 
	C371.996063,491.617554 373.494965,488.761505 375.124268,485.962585 
	C375.778534,486.056335 376.219940,486.056122 376.661377,486.055908 
	C376.088684,485.729034 375.515991,485.402191 374.957947,484.716003 
	C375.296844,483.217163 375.621033,482.077606 375.945221,480.938080 
z"/>
<path fill="#0FA3B7" opacity="1.000000" stroke="none" 
	d="
M536.512573,608.286133 
	C539.198914,608.464478 541.486206,608.925659 543.775024,608.933838 
	C561.655334,608.997803 579.536133,608.948425 597.416443,609.011414 
	C599.698120,609.019470 601.978210,609.473572 604.620117,609.922546 
	C595.820068,610.237488 586.658875,610.445312 577.497620,610.448486 
	C526.999878,610.466003 476.502106,610.433594 425.548523,610.338440 
	C427.316925,609.835327 429.539581,609.053711 431.765686,609.043701 
	C456.213409,608.933594 480.661713,608.943726 505.942627,608.918335 
	C507.499725,608.905273 508.223969,608.895142 508.948242,608.885010 
	C518.003601,608.709717 527.058899,608.534363 536.512573,608.286133 
z"/>
<path fill="#12B0C0" opacity="1.000000" stroke="none" 
	d="
M374.911438,485.868622 
	C373.494965,488.761505 371.996063,491.617554 370.681458,494.556061 
	C368.760101,498.850922 366.970978,503.205017 364.815735,507.727112 
	C372.309204,485.329590 380.112366,462.738770 388.098816,439.845215 
	C387.939087,441.954071 387.933075,444.474365 387.196014,446.758789 
	C383.590149,457.934753 379.789398,469.047852 376.001404,480.560608 
	C375.621033,482.077606 375.296844,483.217163 374.951233,484.913910 
	C374.929779,485.471130 374.911469,485.868622 374.911438,485.868622 
z"/>
<path fill="#15BDC9" opacity="1.000000" stroke="none" 
	d="
M414.962158,369.533264 
	C412.733124,375.202057 410.496277,380.456726 408.306458,385.730896 
	C405.859314,391.624908 403.454773,397.536591 400.762512,403.681763 
	C406.933075,385.174072 413.372772,366.425171 419.959808,347.344910 
	C419.984741,348.889557 420.151520,350.840942 419.686218,352.627655 
	C418.245056,358.161316 416.563385,363.632355 414.962158,369.533264 
z"/>
<path fill="#0A90AA" opacity="1.000000" stroke="none" 
	d="
M697.344604,613.524048 
	C696.081238,611.796509 694.729126,609.689697 693.188477,607.291260 
	C691.612061,601.519226 690.224182,596.038818 688.966858,590.254761 
	C691.816956,597.682312 694.536438,605.413513 697.344604,613.524048 
z"/>
<path fill="#0988A5" opacity="1.000000" stroke="none" 
	d="
M386.001953,712.618835 
	C386.714661,709.469543 387.559082,705.977905 388.661652,702.254272 
	C387.991119,705.440369 387.062378,708.858459 386.001953,712.618835 
z"/>
<path fill="#0C98B0" opacity="1.000000" stroke="none" 
	d="
M663.027222,514.620728 
	C661.717224,511.536774 660.422668,508.069122 659.166260,504.178284 
	C660.483765,507.249115 661.763245,510.743103 663.027222,514.620728 
z"/>
<path fill="#0982A1" opacity="1.000000" stroke="none" 
	d="
M625.456787,670.434570 
	C626.294006,672.209900 627.229431,674.358948 627.998901,676.801880 
	C627.073669,674.999878 626.314392,672.904175 625.456787,670.434570 
z"/>
<path fill="#0A90AA" opacity="1.000000" stroke="none" 
	d="
M700.205078,622.641296 
	C699.412048,620.856934 698.586609,618.686462 697.921387,616.235962 
	C698.778625,618.055725 699.475647,620.155457 700.205078,622.641296 
z"/>
<path fill="#0982A1" opacity="1.000000" stroke="none" 
	d="
M720.232300,680.622803 
	C719.460022,679.209595 718.805054,677.426392 718.122864,675.278442 
	C718.846985,676.693420 719.598267,678.473083 720.232300,680.622803 
z"/>
<path fill="#0982A1" opacity="1.000000" stroke="none" 
	d="
M628.881592,680.415771 
	C629.526184,681.624878 630.212769,683.207642 630.921265,685.180542 
	C630.269958,683.976868 629.596741,682.383118 628.881592,680.415771 
z"/>
<path fill="#0FA3B7" opacity="1.000000" stroke="none" 
	d="
M654.184143,489.698242 
	C653.860107,489.204102 653.522949,488.346069 653.164917,487.137390 
	C653.486328,487.635956 653.828674,488.485168 654.184143,489.698242 
z"/>
<path fill="#12B0C0" opacity="1.000000" stroke="none" 
	d="
M388.965179,437.317535 
	C388.967987,437.764374 388.831665,438.511658 388.457764,439.374420 
	C388.422150,438.865936 388.624115,438.241943 388.965179,437.317535 
z"/>
<path fill="#0A90AA" opacity="1.000000" stroke="none" 
	d="
M702.160400,628.679199 
	C701.805054,628.185364 701.490845,627.331665 701.157349,626.126526 
	C701.492615,626.623169 701.847107,627.471191 702.160400,628.679199 
z"/>
<path fill="#12B0C0" opacity="1.000000" stroke="none" 
	d="
M626.351746,409.112122 
	C625.863464,408.522095 625.532471,407.545105 625.167236,406.179382 
	C625.591553,406.768860 626.050293,407.747040 626.351746,409.112122 
z"/>
<path fill="#0A90AA" opacity="1.000000" stroke="none" 
	d="
M701.151428,625.685791 
	C700.809021,625.191895 700.490417,624.337280 700.155334,623.131409 
	C700.484253,623.628479 700.829712,624.476807 701.151428,625.685791 
z"/>
<path fill="#0C98B0" opacity="1.000000" stroke="none" 
	d="
M664.194885,518.679810 
	C663.849915,518.172119 663.507507,517.291199 663.133423,516.052490 
	C663.466980,516.565308 663.832214,517.435913 664.194885,518.679810 
z"/>
<path fill="#0982A1" opacity="1.000000" stroke="none" 
	d="
M721.282959,683.650757 
	C720.830444,683.190125 720.505005,682.384583 720.136108,681.251099 
	C720.531860,681.717346 720.971008,682.511597 721.282959,683.650757 
z"/>
<path fill="#0A90AA" opacity="1.000000" stroke="none" 
	d="
M704.137146,634.118408 
	C703.820618,633.795105 703.565002,633.064209 703.207214,631.959717 
	C703.469360,632.294250 703.833740,633.002563 704.137146,634.118408 
z"/>
<path fill="#0A90AA" opacity="1.000000" stroke="none" 
	d="
M703.106140,630.694824 
	C702.806885,630.472473 702.532532,629.920349 702.183105,629.064087 
	C702.449097,629.294983 702.790039,629.829956 703.106140,630.694824 
z"/>
<path fill="#0982A1" opacity="1.000000" stroke="none" 
	d="
M722.225586,686.127258 
	C721.888916,685.874390 721.603577,685.230591 721.193481,684.257996 
	C721.471436,684.531616 721.874146,685.133972 722.225586,686.127258 
z"/>
<path fill="#0982A1" opacity="1.000000" stroke="none" 
	d="
M723.136719,689.088379 
	C722.806152,688.752625 722.540710,687.985779 722.164795,686.828247 
	C722.436890,687.177429 722.819336,687.917419 723.136719,689.088379 
z"/>
<path fill="#0FA3B7" opacity="1.000000" stroke="none" 
	d="
M657.108459,497.677551 
	C656.809875,497.434845 656.538513,496.849945 656.191406,495.949829 
	C656.455688,496.201508 656.795654,496.768433 657.108459,497.677551 
z"/>
<path fill="#0FA3B7" opacity="1.000000" stroke="none" 
	d="
M655.063232,491.682434 
	C654.777161,491.457062 654.520569,490.909119 654.195435,490.062500 
	C654.448853,490.295837 654.770874,490.827850 655.063232,491.682434 
z"/>
<path fill="#0C98B0" opacity="1.000000" stroke="none" 
	d="
M668.184692,530.085754 
	C667.839478,529.754639 667.579102,529.010254 667.214844,527.883667 
	C667.497192,528.225159 667.883362,528.948853 668.184692,530.085754 
z"/>
<path fill="#0C98B0" opacity="1.000000" stroke="none" 
	d="
M667.159180,526.687256 
	C666.849243,526.441223 666.563232,525.845093 666.199524,524.925537 
	C666.475525,525.180420 666.829285,525.758850 667.159180,526.687256 
z"/>
<path fill="#0C98B0" opacity="1.000000" stroke="none" 
	d="
M666.106201,523.674072 
	C665.809875,523.425232 665.538879,522.830872 665.195251,521.916016 
	C665.458923,522.173218 665.795227,522.750854 666.106201,523.674072 
z"/>
<path fill="#0C98B0" opacity="1.000000" stroke="none" 
	d="
M665.105530,520.692566 
	C664.814514,520.464600 664.547791,519.909668 664.210999,519.050293 
	C664.470581,519.285767 664.800171,519.825684 665.105530,520.692566 
z"/>
<path fill="#0FA3B7" opacity="1.000000" stroke="none" 
	d="
M656.082520,494.675781 
	C655.790039,494.437225 655.524597,493.862701 655.183716,492.979065 
	C655.442078,493.226562 655.775757,493.783173 656.082520,494.675781 
z"/>
<path fill="#0FA3B7" opacity="1.000000" stroke="none" 
	d="
M658.083496,503.218658 
	C657.901245,502.806519 657.950806,502.557678 658.067017,501.934143 
	C658.488342,502.119690 658.842957,502.679901 659.256287,503.578918 
	C658.981750,503.739136 658.648438,503.560547 658.083496,503.218658 
z"/>
<path fill="#0FA3B7" opacity="1.000000" stroke="none" 
	d="
M658.138794,500.681580 
	C657.834412,500.433136 657.555298,499.836029 657.199097,498.916504 
	C657.469360,499.173706 657.816711,499.753326 658.138794,500.681580 
z"/>
<path fill="#15BDC9" opacity="1.000000" stroke="none" 
	d="
M399.744995,406.203064 
	C399.819061,406.238220 399.699402,406.481903 399.485718,406.834930 
	C399.474518,406.782501 399.527679,406.604950 399.744995,406.203064 
z"/>
<path fill="#0982A1" opacity="1.000000" stroke="none" 
	d="
M630.858765,686.189331 
	C630.989136,686.153870 631.081482,686.413940 631.095581,686.835938 
	C631.022583,686.804077 630.957031,686.633057 630.858765,686.189331 
z"/>
<path fill="#02061C" opacity="1.000000" stroke="none" 
	d="
M461.036926,482.997528 
	C461.036926,482.997528 461.220886,482.726532 461.212524,482.562927 
	C468.133179,461.829681 475.071320,441.263123 481.985413,420.688477 
	C483.991791,414.718018 485.929230,408.724365 488.031433,402.045929 
	C488.212769,400.898041 488.260956,400.445557 488.309113,399.993042 
	C488.309113,399.993042 488.123474,400.060089 488.435425,399.915771 
	C491.311127,391.906036 493.874847,384.040558 496.438568,376.175110 
	C496.438568,376.175110 496.430634,376.120758 496.447296,376.143066 
	C501.589020,360.806335 506.714081,345.447327 511.839142,330.088318 
	C512.231995,330.080597 512.624878,330.072876 513.017761,330.065125 
	C534.579468,394.485779 556.141113,458.906403 577.864136,523.655212 
	C578.124329,524.548706 578.223145,525.114014 578.592285,526.195190 
	C578.980469,527.127319 579.098267,527.543579 579.216064,527.959900 
	C578.985962,528.279846 578.755920,528.599792 577.788452,528.997192 
	C535.571350,529.065125 494.091675,529.046326 452.612061,529.082031 
	C451.056122,529.083374 449.500641,529.612915 447.944946,529.896301 
	C447.352264,529.771729 446.759613,529.647217 446.139832,528.894836 
	C446.864410,525.887817 447.616058,523.508667 448.367676,521.129456 
	C448.606995,520.617065 448.846252,520.104675 449.228424,519.097290 
	C449.414948,518.441162 449.458588,518.280029 449.502197,518.118896 
	C449.698456,517.603516 449.894714,517.088074 450.237854,516.089478 
	C450.426025,515.444519 450.467285,515.282654 450.508545,515.120850 
	C450.691284,514.603577 450.873993,514.086243 451.201782,513.103516 
	C451.346863,512.638062 451.440521,512.179016 451.440521,512.179016 
	C451.440521,512.179016 451.299896,512.116272 451.512512,511.916992 
	C452.295898,509.855469 452.866669,507.993225 453.437439,506.130981 
	C453.437469,506.130981 453.250488,506.106964 453.489624,505.939331 
	C453.930542,504.832062 454.132324,503.892395 454.334137,502.952759 
	C454.334137,502.952759 454.111938,503.059692 454.419495,502.912598 
	C454.917816,501.824951 455.108551,500.884430 455.299286,499.943878 
	C455.299286,499.943878 455.084106,500.072601 455.401001,499.920654 
	C455.916656,498.828766 456.115448,497.888855 456.314270,496.948975 
	C456.314301,496.948975 456.090210,497.040405 456.386292,496.894379 
	C456.901337,495.818024 457.120300,494.887695 457.339264,493.957367 
	C457.339264,493.957367 457.134094,494.077148 457.432068,493.912720 
	C458.168854,492.163269 458.607605,490.578186 459.046387,488.993134 
	C459.046387,488.993134 459.184296,488.814728 459.376526,488.422302 
	C460.058136,486.352448 460.547546,484.674988 461.036926,482.997528 
z"/>
<path fill="#0FA3B7" opacity="1.000000" stroke="none" 
	d="
M448.314392,530.091064 
	C449.500641,529.612915 451.056122,529.083374 452.612061,529.082031 
	C494.091675,529.046326 535.571350,529.065125 577.516113,529.125244 
	C576.175232,529.779053 574.370544,530.903931 572.562927,530.908630 
	C532.738159,531.010864 492.913116,530.996582 453.088135,530.961243 
	C451.619812,530.959900 450.151917,530.520813 448.314392,530.091064 
z"/>
<path fill="#0FA3B7" opacity="1.000000" stroke="none" 
	d="
M448.018250,521.080139 
	C447.616058,523.508667 446.864410,525.887817 445.990479,528.619263 
	C446.145203,526.515381 446.422241,524.059387 446.834747,521.266724 
	C447.203064,520.963623 447.435913,520.997192 448.018250,521.080139 
z"/>
<path fill="#12B0C0" opacity="1.000000" stroke="none" 
	d="
M579.414368,527.960938 
	C579.098267,527.543579 578.980469,527.127319 578.809692,526.391235 
	C579.091187,526.540222 579.425537,527.008850 579.879944,527.738770 
	C579.999939,528.000000 580.008362,527.990417 580.008362,527.990417 
	C580.008362,527.990417 579.612671,527.962036 579.414368,527.960938 
z"/>
<path fill="#12B0C0" opacity="1.000000" stroke="none" 
	d="
M579.994995,528.004150 
	C579.990051,528.008301 580.041748,528.028381 580.025024,528.009399 
	C580.008362,527.990417 579.999939,528.000000 579.994995,528.004150 
z"/>
<path fill="#0982A1" opacity="1.000000" stroke="none" 
	d="
M365.794830,631.970093 
	C372.509888,630.222656 378.736237,628.332703 385.055817,626.836609 
	C387.214142,626.325684 389.817841,626.213501 391.852600,626.941040 
	C397.930359,629.114380 403.409363,626.947144 409.034363,625.374756 
	C409.933899,625.123352 410.881470,625.043823 412.569885,624.753723 
	C411.851349,627.675110 411.386902,630.054810 410.676208,632.358521 
	C408.715271,638.714783 406.543915,645.007690 404.668152,651.388123 
	C403.519501,655.295166 402.632721,659.142761 396.799561,656.399353 
	C396.608032,658.483459 397.034546,660.609375 396.173859,661.523682 
	C395.056091,662.711121 392.243408,663.987915 391.323120,663.401489 
	C385.584351,659.744629 379.710785,665.370361 374.042358,662.847473 
	C373.587463,662.644958 372.411255,664.242004 371.481384,664.871704 
	C370.716736,665.389648 369.678223,666.226379 369.004730,666.040161 
	C364.074585,664.677917 359.208038,663.086060 354.314240,661.590149 
	C353.856720,661.450317 353.349182,661.473938 352.484924,661.380615 
	C352.307129,662.745850 352.137909,664.045044 351.975494,665.292114 
	C346.357727,664.042114 341.140442,662.468079 335.811554,661.837952 
	C332.141327,661.404053 328.320953,662.419556 324.559784,662.538757 
	C316.034943,662.808960 313.653717,659.615784 316.371918,651.496521 
	C318.781158,644.300232 321.389496,637.170654 323.323730,631.676636 
	C328.142273,631.795166 331.639038,631.969543 335.134644,631.949280 
	C343.047821,631.903320 350.960297,631.732910 358.873505,631.677063 
	C361.029083,631.661865 363.186218,631.874023 365.794830,631.970093 
z"/>
<path fill="#08769A" opacity="1.000000" stroke="none" 
	d="
M394.996704,678.681274 
	C394.373962,678.445251 393.922424,678.049194 393.470825,677.653076 
	C393.793732,677.360901 394.116638,677.068787 394.439575,676.776611 
	C394.682343,677.358154 394.925110,677.939636 394.996704,678.681274 
z"/>
<path fill="#0982A1" opacity="1.000000" stroke="none" 
	d="
M508.823090,608.664307 
	C508.223969,608.895142 507.499725,608.905273 506.414246,608.898560 
	C506.934692,608.735718 507.816315,608.589661 508.823090,608.664307 
z"/>
<path fill="#12B0C0" opacity="1.000000" stroke="none" 
	d="
M436.507202,304.508118 
	C436.502533,304.489502 436.511841,304.526703 436.507202,304.508118 
z"/>
<path fill="#12B0C0" opacity="1.000000" stroke="none" 
	d="
M496.117920,376.348083 
	C493.874847,384.040558 491.311127,391.906036 488.469147,400.008545 
	C490.726349,392.337433 493.261780,384.429260 496.117920,376.348083 
z"/>
<path fill="#12B0C0" opacity="1.000000" stroke="none" 
	d="
M488.180420,400.179688 
	C488.260956,400.445557 488.212769,400.898041 488.052094,401.669250 
	C487.976990,401.447418 488.014343,400.906860 488.180420,400.179688 
z"/>
<path fill="#0FA3B7" opacity="1.000000" stroke="none" 
	d="
M453.115601,506.335449 
	C452.866669,507.993225 452.295898,509.855469 451.481415,511.987427 
	C451.756378,510.351410 452.275055,508.445648 453.115601,506.335449 
z"/>
<path fill="#0FA3B7" opacity="1.000000" stroke="none" 
	d="
M460.721832,483.207550 
	C460.547546,484.674988 460.058136,486.352448 459.321198,488.324097 
	C459.518005,486.884705 459.962372,485.151123 460.721832,483.207550 
z"/>
<path fill="#0FA3B7" opacity="1.000000" stroke="none" 
	d="
M458.739929,489.185669 
	C458.607605,490.578186 458.168854,492.163269 457.492126,494.015259 
	C457.647308,492.647522 458.040405,491.012848 458.739929,489.185669 
z"/>
<path fill="#0FA3B7" opacity="1.000000" stroke="none" 
	d="
M375.124268,485.962585 
	C374.911469,485.868622 374.929779,485.471130 374.936523,485.273254 
	C375.515991,485.402191 376.088684,485.729034 376.661377,486.055908 
	C376.219940,486.056122 375.778534,486.056335 375.124268,485.962585 
z"/>
<path fill="#0FA3B7" opacity="1.000000" stroke="none" 
	d="
M454.144012,503.257385 
	C454.132324,503.892395 453.930542,504.832062 453.477905,506.032837 
	C453.469360,505.383331 453.711639,504.472656 454.144012,503.257385 
z"/>
<path fill="#0FA3B7" opacity="1.000000" stroke="none" 
	d="
M455.115234,500.250000 
	C455.108551,500.884430 454.917816,501.824951 454.473114,503.023621 
	C454.456512,502.373230 454.693848,501.464661 455.115234,500.250000 
z"/>
<path fill="#0FA3B7" opacity="1.000000" stroke="none" 
	d="
M456.119873,497.251648 
	C456.115448,497.888855 455.916656,498.828766 455.465424,500.028168 
	C455.450470,499.376526 455.687958,498.465424 456.119873,497.251648 
z"/>
<path fill="#0FA3B7" opacity="1.000000" stroke="none" 
	d="
M457.143860,494.257324 
	C457.120300,494.887695 456.901337,495.818024 456.432098,497.006348 
	C456.437378,496.362000 456.692932,495.459656 457.143860,494.257324 
z"/>
<path fill="#0FA3B7" opacity="1.000000" stroke="none" 
	d="
M449.416351,518.214355 
	C449.458588,518.280029 449.414948,518.441162 449.230469,518.809265 
	C449.090149,518.751282 449.170441,518.515808 449.416351,518.214355 
z"/>
<path fill="#0FA3B7" opacity="1.000000" stroke="none" 
	d="
M450.421692,515.215088 
	C450.467285,515.282654 450.426025,515.444519 450.238586,515.809631 
	C450.092163,515.748108 450.172974,515.513611 450.421692,515.215088 
z"/>
<path fill="#0FA3B7" opacity="1.000000" stroke="none" 
	d="
M451.354767,512.266113 
	C451.440521,512.179016 451.346863,512.638062 451.206024,512.825317 
	C451.039795,512.760925 451.107758,512.541138 451.354767,512.266113 
z"/>
</svg>